STARTFONT 2.1
FONT -Misc-VCR-Medium-R-Normal-Outline-18-170-75-75-C-140-ISO10646-1
SIZE 17 75 75
FONTBOUNDINGBOX 14 18 0 0
STARTPROPERTIES 17
POINT_SIZE 170
PIXEL_SIZE 18
RESOLUTION_X 75
RESOLUTION_Y 75
FONT_ASCENT 18
FONT_DESCENT 0
AVERAGE_WIDTH 140
CHARSET_REGISTRY "ISO10646"
CHARSET_ENCODING "1"
SPACING "C"
_GBDFED_INFO "Edited with gbdfed 1.6."
FOUNDRY "Misc"
FAMILY_NAME "VCR"
WEIGHT_NAME "Medium"
SLANT "R"
SETWIDTH_NAME "Normal"
ADD_STYLE_NAME "Outline"
ENDPROPERTIES
CHARS 95
STARTCHAR SPACE
ENCODING 32
SWIDTH 790 0
DWIDTH 14 0
BBX 14 18 0 0
BITMAP
0000
0000
0000
0000
0000
0000
0000
0000
0000
0000
0000
0000
0000
0000
0000
0000
0000
0000
ENDCHAR
STARTCHAR EXCLAMATION MARK
ENCODING 33
SWIDTH 790 0
DWIDTH 14 0
BBX 14 18 0 0
BITMAP
0300
0480
0480
0480
0480
0480
0480
0480
0480
0480
0480
0480
0300
0000
0300
0480
0480
0300
ENDCHAR
STARTCHAR QUOTATION MARK
ENCODING 34
SWIDTH 790 0
DWIDTH 14 0
BBX 14 18 0 0
BITMAP
0000
0840
14A0
2310
1290
0A50
0A50
14A0
0840
0000
0000
0000
0000
0000
0000
0000
0000
0000
ENDCHAR
STARTCHAR NUMBER SIGN
ENCODING 35
SWIDTH 790 0
DWIDTH 14 0
BBX 14 18 0 0
BITMAP
0000
00C0
0D20
1330
1308
3008
4030
4320
3330
1308
3008
4030
4320
3320
12C0
0C00
0000
0000
ENDCHAR
STARTCHAR DOLLAR SIGN
ENCODING 36
SWIDTH 790 0
DWIDTH 14 0
BBX 14 18 0 0
BITMAP
0300
0480
0CC0
1020
2010
4488
44C8
20F0
1820
3410
4C88
4488
2010
1020
0CC0
0480
0300
0000
ENDCHAR
STARTCHAR PERCENT SIGN
ENCODING 37
SWIDTH 790 0
DWIDTH 14 0
BBX 14 18 0 0
BITMAP
0000
0000
0000
0000
1830
2448
2488
1910
0220
0440
0880
1100
2260
4490
4890
3060
0000
0000
ENDCHAR
STARTCHAR AMPERSAND
ENCODING 38
SWIDTH 790 0
DWIDTH 14 0
BBX 14 18 0 0
BITMAP
0700
0880
1040
2720
2520
2520
2520
1240
1080
2080
4470
4A48
4A48
4910
4710
2008
10C8
0F30
ENDCHAR
STARTCHAR APOSTROPHE
ENCODING 39
SWIDTH 790 0
DWIDTH 14 0
BBX 14 18 0 0
BITMAP
0000
0100
0280
0440
0240
0140
0140
0280
0100
0000
0000
0000
0000
0000
0000
0000
0000
0000
ENDCHAR
STARTCHAR LEFT PARENTHESIS
ENCODING 40
SWIDTH 790 0
DWIDTH 14 0
BBX 14 18 0 0
BITMAP
0000
0000
0000
0060
0090
0120
0240
0480
0480
0480
0480
0480
0480
0480
0240
0120
0090
0060
ENDCHAR
STARTCHAR RIGHT PARENTHESIS
ENCODING 41
SWIDTH 790 0
DWIDTH 14 0
BBX 14 18 0 0
BITMAP
0000
0000
0000
0C00
1200
0900
0480
0240
0240
0240
0240
0240
0240
0240
0480
0900
1200
0C00
ENDCHAR
STARTCHAR ASTERISK
ENCODING 42
SWIDTH 790 0
DWIDTH 14 0
BBX 14 18 0 0
BITMAP
0000
0000
0000
2310
54A8
4CC8
2490
1020
0840
0840
1020
2490
4CC8
54A8
2310
0000
0000
0000
ENDCHAR
STARTCHAR PLUS SIGN
ENCODING 43
SWIDTH 790 0
DWIDTH 14 0
BBX 14 18 0 0
BITMAP
0000
0000
0000
0300
0480
0480
0480
3CF0
4008
4008
3CF0
0480
0480
0480
0300
0000
0000
0000
ENDCHAR
STARTCHAR COMMA
ENCODING 44
SWIDTH 790 0
DWIDTH 14 0
BBX 14 18 0 0
BITMAP
0000
0000
0000
0000
0000
0000
0000
0000
0000
0000
0000
0000
0300
0480
0480
0900
1200
0C00
ENDCHAR
STARTCHAR HYPHEN-MINUS
ENCODING 45
SWIDTH 790 0
DWIDTH 14 0
BBX 14 18 0 0
BITMAP
0000
0000
0000
0000
0000
0000
0000
0FE0
1010
1010
0FE0
0000
0000
0000
0000
0000
0000
0000
ENDCHAR
STARTCHAR FULL STOP
ENCODING 46
SWIDTH 790 0
DWIDTH 14 0
BBX 14 18 0 0
BITMAP
0000
0000
0000
0000
0000
0000
0000
0000
0000
0000
0000
0000
0000
0000
00C0
0120
0120
00C0
ENDCHAR
STARTCHAR SOLIDUS
ENCODING 47
SWIDTH 790 0
DWIDTH 14 0
BBX 14 18 0 0
BITMAP
0000
0000
0000
0000
0030
0048
0088
0110
0220
0440
0880
1100
2200
4400
4800
3000
0000
0000
ENDCHAR
STARTCHAR DIGIT ZERO
ENCODING 48
SWIDTH 790 0
DWIDTH 14 0
BBX 14 18 0 0
BITMAP
0000
0000
0FC0
1020
2010
4788
4848
4848
4848
4848
4848
4848
4848
4848
4788
2010
1020
0FC0
ENDCHAR
STARTCHAR DIGIT ONE
ENCODING 49
SWIDTH 790 0
DWIDTH 14 0
BBX 14 18 0 0
BITMAP
0000
0000
0380
0480
0880
1080
1080
1C80
0480
0480
0480
0480
0480
0480
1CE0
1020
1020
1FE0
ENDCHAR
STARTCHAR DIGIT TWO
ENCODING 50
SWIDTH 790 0
DWIDTH 14 0
BBX 14 18 0 0
BITMAP
0000
0000
0FC0
1020
2010
4788
4848
3048
0088
0110
0220
0440
0880
1100
23F8
4008
4008
7FF8
ENDCHAR
STARTCHAR DIGIT THREE
ENCODING 51
SWIDTH 790 0
DWIDTH 14 0
BBX 14 18 0 0
BITMAP
0000
0000
0FC0
1020
2010
4788
4848
3048
0388
0410
0410
0388
3048
4848
4788
2010
1020
0FC0
ENDCHAR
STARTCHAR DIGIT FOUR
ENCODING 52
SWIDTH 790 0
DWIDTH 14 0
BBX 14 18 0 0
BITMAP
0000
0000
00C0
0120
0220
0420
0820
1120
2320
4520
4F30
4008
4008
3F30
0120
0120
0120
00C0
ENDCHAR
STARTCHAR DIGIT FIVE
ENCODING 53
SWIDTH 790 0
DWIDTH 14 0
BBX 14 18 0 0
BITMAP
0000
0000
3FF0
4008
4008
4FF0
4FC0
4020
4010
3F88
0048
0048
3048
4848
4788
2010
1020
0FC0
ENDCHAR
STARTCHAR DIGIT SIX
ENCODING 54
SWIDTH 790 0
DWIDTH 14 0
BBX 14 18 0 0
BITMAP
0000
0000
0FC0
1020
2010
4788
4848
4830
4FC0
4020
4010
4F88
4848
4848
4788
2010
1020
0FC0
ENDCHAR
STARTCHAR DIGIT SEVEN
ENCODING 55
SWIDTH 790 0
DWIDTH 14 0
BBX 14 18 0 0
BITMAP
0000
0000
3FF0
4008
4008
3FC8
0088
0110
0220
0440
0480
0480
0480
0480
0480
0480
0480
0300
ENDCHAR
STARTCHAR DIGIT EIGHT
ENCODING 56
SWIDTH 790 0
DWIDTH 14 0
BBX 14 18 0 0
BITMAP
0000
0000
0FC0
1020
2010
4788
4848
4848
4788
2010
2010
4788
4848
4848
4788
2010
1020
0FC0
ENDCHAR
STARTCHAR DIGIT NINE
ENCODING 57
SWIDTH 790 0
DWIDTH 14 0
BBX 14 18 0 0
BITMAP
0000
0000
0FC0
1020
2010
4788
4848
4848
47C8
2008
1008
0FC8
3048
4848
4788
2010
1020
0FC0
ENDCHAR
STARTCHAR COLON
ENCODING 58
SWIDTH 790 0
DWIDTH 14 0
BBX 14 18 0 0
BITMAP
0000
0000
0000
0000
0300
0480
0480
0300
0000
0000
0000
0000
0300
0480
0480
0300
0000
0000
ENDCHAR
STARTCHAR SEMICOLON
ENCODING 59
SWIDTH 790 0
DWIDTH 14 0
BBX 14 18 0 0
BITMAP
0000
0000
0000
0000
0300
0480
0480
0300
0000
0000
0300
0480
0480
0900
1200
0C00
0000
0000
ENDCHAR
STARTCHAR LESS-THAN SIGN
ENCODING 60
SWIDTH 790 0
DWIDTH 14 0
BBX 14 18 0 0
BITMAP
0020
0050
0090
0110
0220
0440
0880
1100
2200
2200
1100
0880
0440
0220
0110
0090
0050
0020
ENDCHAR
STARTCHAR EQUALS SIGN
ENCODING 61
SWIDTH 790 0
DWIDTH 14 0
BBX 14 18 0 0
BITMAP
0000
0000
0000
0000
1FE0
2010
2010
1FE0
0000
0000
1FE0
2010
2010
1FE0
0000
0000
0000
0000
ENDCHAR
STARTCHAR GREATER-THAN SIGN
ENCODING 62
SWIDTH 790 0
DWIDTH 14 0
BBX 14 18 0 0
BITMAP
1000
2800
2400
2200
1100
0880
0440
0220
0110
0110
0220
0440
0880
1100
2200
2400
2800
1000
ENDCHAR
STARTCHAR QUESTION MARK
ENCODING 63
SWIDTH 790 0
DWIDTH 14 0
BBX 14 18 0 0
BITMAP
0000
0000
0FC0
1020
2010
4788
4848
3048
0088
0110
0220
0440
0480
0300
0300
0480
0480
0300
ENDCHAR
STARTCHAR COMMERCIAL AT
ENCODING 64
SWIDTH 790 0
DWIDTH 14 0
BBX 14 18 0 0
BITMAP
0000
0FC0
1020
2FD0
5328
54A8
5868
5B68
5B68
5B68
5868
5C68
5308
50F0
5000
2FE0
1010
0FE0
ENDCHAR
STARTCHAR LATIN CAPITAL LETTER A
ENCODING 65
SWIDTH 790 0
DWIDTH 14 0
BBX 14 18 0 0
BITMAP
0000
0000
0300
0480
0840
1020
2310
4488
4848
4848
4FC8
4008
4008
4FC8
4848
4848
4848
3030
ENDCHAR
STARTCHAR LATIN CAPITAL LETTER B
ENCODING 66
SWIDTH 790 0
DWIDTH 14 0
BBX 14 18 0 0
BITMAP
0000
0000
3FC0
4020
4010
4F88
4848
4848
4F88
4010
4010
4F88
4848
4848
4F88
4010
4020
3FC0
ENDCHAR
STARTCHAR LATIN CAPITAL LETTER C
ENCODING 67
SWIDTH 790 0
DWIDTH 14 0
BBX 14 18 0 0
BITMAP
0000
0000
0FC0
1020
2010
4788
4848
4830
4800
4800
4800
4800
4830
4848
4788
2010
1020
0FC0
ENDCHAR
STARTCHAR LATIN CAPITAL LETTER D
ENCODING 68
SWIDTH 790 0
DWIDTH 14 0
BBX 14 18 0 0
BITMAP
0000
0000
3F00
4080
4040
4E20
4910
4888
4848
4848
4848
4848
4888
4910
4E20
4040
4080
3F00
ENDCHAR
STARTCHAR LATIN CAPITAL LETTER E
ENCODING 69
SWIDTH 790 0
DWIDTH 14 0
BBX 14 18 0 0
BITMAP
0000
0000
3FF0
4008
4008
4FF0
4800
4800
4FC0
4020
4020
4FC0
4800
4800
4FF0
4008
4008
3FF0
ENDCHAR
STARTCHAR LATIN CAPITAL LETTER F
ENCODING 70
SWIDTH 790 0
DWIDTH 14 0
BBX 14 18 0 0
BITMAP
0000
0000
3FF0
4008
4008
4FF0
4800
4800
4FC0
4020
4020
4FC0
4800
4800
4800
4800
4800
3000
ENDCHAR
STARTCHAR LATIN CAPITAL LETTER G
ENCODING 71
SWIDTH 790 0
DWIDTH 14 0
BBX 14 18 0 0
BITMAP
0000
0000
0FC0
1020
2010
4790
4848
4848
4830
4BF0
4C08
4C08
4BC8
4848
47C8
2008
1008
0FF0
ENDCHAR
STARTCHAR LATIN CAPITAL LETTER H
ENCODING 72
SWIDTH 790 0
DWIDTH 14 0
BBX 14 18 0 0
BITMAP
0000
0000
3030
4848
4848
4848
4848
4848
4FC8
4008
4008
4FC8
4848
4848
4848
4848
4848
3030
ENDCHAR
STARTCHAR LATIN CAPITAL LETTER I
ENCODING 73
SWIDTH 790 0
DWIDTH 14 0
BBX 14 18 0 0
BITMAP
0000
0000
0FC0
1020
1020
0CC0
0480
0480
0480
0480
0480
0480
0480
0480
0CC0
1020
1020
0FC0
ENDCHAR
STARTCHAR LATIN CAPITAL LETTER J
ENCODING 74
SWIDTH 790 0
DWIDTH 14 0
BBX 14 18 0 0
BITMAP
0000
0000
03F0
0408
0408
0330
0120
0120
0120
0120
0120
0120
3120
4920
4620
2040
1080
0F00
ENDCHAR
STARTCHAR LATIN CAPITAL LETTER K
ENCODING 75
SWIDTH 790 0
DWIDTH 14 0
BBX 14 18 0 0
BITMAP
0000
0000
3030
4848
4888
4910
4A20
4C40
4880
4100
4100
4880
4C40
4A20
4910
4888
4848
3030
ENDCHAR
STARTCHAR LATIN CAPITAL LETTER L
ENCODING 76
SWIDTH 790 0
DWIDTH 14 0
BBX 14 18 0 0
BITMAP
0000
0000
3000
4800
4800
4800
4800
4800
4800
4800
4800
4800
4800
4800
4FF0
4008
4008
3FF0
ENDCHAR
STARTCHAR LATIN CAPITAL LETTER M
ENCODING 77
SWIDTH 790 0
DWIDTH 14 0
BBX 14 18 0 0
BITMAP
0000
0000
3030
4848
4488
4308
4008
4848
4CC8
4CC8
4B48
4848
4848
4848
4848
4848
4848
3030
ENDCHAR
STARTCHAR LATIN CAPITAL LETTER N
ENCODING 78
SWIDTH 790 0
DWIDTH 14 0
BBX 14 18 0 0
BITMAP
0000
0000
3030
4848
4448
4248
4248
4948
4948
4CC8
4CC8
4A48
4A48
4908
4908
4888
4848
3030
ENDCHAR
STARTCHAR LATIN CAPITAL LETTER O
ENCODING 79
SWIDTH 790 0
DWIDTH 14 0
BBX 14 18 0 0
BITMAP
0000
0000
0FC0
1020
2010
4788
4848
4848
4848
4848
4848
4848
4848
4848
4788
2010
1020
0FC0
ENDCHAR
STARTCHAR LATIN CAPITAL LETTER P
ENCODING 80
SWIDTH 790 0
DWIDTH 14 0
BBX 14 18 0 0
BITMAP
0000
0000
3FC0
4020
4010
4F88
4848
4848
4F88
4010
4020
4FC0
4800
4800
4800
4800
4800
3000
ENDCHAR
STARTCHAR LATIN CAPITAL LETTER Q
ENCODING 81
SWIDTH 790 0
DWIDTH 14 0
BBX 14 18 0 0
BITMAP
0000
0000
0FC0
1020
2010
4788
4848
4848
4848
4848
4B48
4CC8
4C48
4A08
4710
2008
1048
0FB0
ENDCHAR
STARTCHAR LATIN CAPITAL LETTER R
ENCODING 82
SWIDTH 790 0
DWIDTH 14 0
BBX 14 18 0 0
BITMAP
0000
0000
3FC0
4020
4010
4F88
4848
4848
4F88
4010
4020
48C0
4C40
4A20
4910
4888
4848
3030
ENDCHAR
STARTCHAR LATIN CAPITAL LETTER S
ENCODING 83
SWIDTH 790 0
DWIDTH 14 0
BBX 14 18 0 0
BITMAP
0000
0000
0FE0
1010
2008
47C8
4830
4800
47C0
2020
1010
0F88
0048
3048
4F88
4010
2020
1FC0
ENDCHAR
STARTCHAR LATIN CAPITAL LETTER T
ENCODING 84
SWIDTH 790 0
DWIDTH 14 0
BBX 14 18 0 0
BITMAP
0000
0000
3FF0
4008
4008
3CF0
0480
0480
0480
0480
0480
0480
0480
0480
0480
0480
0480
0300
ENDCHAR
STARTCHAR LATIN CAPITAL LETTER U
ENCODING 85
SWIDTH 790 0
DWIDTH 14 0
BBX 14 18 0 0
BITMAP
0000
0000
3030
4848
4848
4848
4848
4848
4848
4848
4848
4848
4848
4848
4788
2010
1020
0FC0
ENDCHAR
STARTCHAR LATIN CAPITAL LETTER V
ENCODING 86
SWIDTH 790 0
DWIDTH 14 0
BBX 14 18 0 0
BITMAP
0000
0000
3030
4848
4848
4848
4848
4848
4848
4848
4848
4848
4488
2310
1020
0840
0480
0300
ENDCHAR
STARTCHAR LATIN CAPITAL LETTER W
ENCODING 87
SWIDTH 790 0
DWIDTH 14 0
BBX 14 18 0 0
BITMAP
0000
0000
3030
4848
4848
4848
4848
4848
4B48
4CC8
4CC8
4CC8
4CC8
4CC8
4008
2010
1320
0CC0
ENDCHAR
STARTCHAR LATIN CAPITAL LETTER X
ENCODING 88
SWIDTH 790 0
DWIDTH 14 0
BBX 14 18 0 0
BITMAP
0000
0000
3030
4848
4848
4848
4488
2310
1020
0840
0840
1020
2310
4488
4848
4848
4848
3030
ENDCHAR
STARTCHAR LATIN CAPITAL LETTER Y
ENCODING 89
SWIDTH 790 0
DWIDTH 14 0
BBX 14 18 0 0
BITMAP
0000
0000
3030
4848
4848
4848
4848
4848
4488
2310
1020
0840
0480
0480
0480
0480
0480
0300
ENDCHAR
STARTCHAR LATIN CAPITAL LETTER Z
ENCODING 90
SWIDTH 790 0
DWIDTH 14 0
BBX 14 18 0 0
BITMAP
0000
0000
3FF0
4008
4008
3FC8
0088
0110
0220
0440
0880
1100
2200
4400
4FF0
4008
4008
3FF0
ENDCHAR
STARTCHAR LEFT SQUARE BRACKET
ENCODING 91
SWIDTH 790 0
DWIDTH 14 0
BBX 14 18 0 0
BITMAP
1F80
2040
2040
2780
2400
2400
2400
2400
2400
2400
2400
2400
2400
2400
2780
2040
2040
1F80
ENDCHAR
STARTCHAR REVERSE SOLIDUS
ENCODING 92
SWIDTH 790 0
DWIDTH 14 0
BBX 14 18 0 0
BITMAP
0000
0000
0000
0000
3000
4800
4400
2200
1100
0880
0440
0220
0110
0088
0048
0030
0000
0000
ENDCHAR
STARTCHAR RIGHT SQUARE BRACKET
ENCODING 93
SWIDTH 790 0
DWIDTH 14 0
BBX 14 18 0 0
BITMAP
07E0
0810
0810
0790
0090
0090
0090
0090
0090
0090
0090
0090
0090
0090
0790
0810
0810
07E0
ENDCHAR
STARTCHAR CIRCUMFLEX ACCENT
ENCODING 94
SWIDTH 790 0
DWIDTH 14 0
BBX 14 18 0 0
BITMAP
0300
0480
0840
1320
2490
4848
5028
2010
0000
0000
0000
0000
0000
0000
0000
0000
0000
0000
ENDCHAR
STARTCHAR LOW LINE
ENCODING 95
SWIDTH 790 0
DWIDTH 14 0
BBX 14 18 0 0
BITMAP
0000
0000
0000
0000
0000
0000
0000
0000
0000
0000
0000
0000
0000
0000
3FF0
4008
4008
3FF0
ENDCHAR
STARTCHAR GRAVE ACCENT
ENCODING 96
SWIDTH 790 0
DWIDTH 14 0
BBX 14 18 0 0
BITMAP
0000
0200
0500
0880
0900
0A00
0A00
0500
0200
0000
0000
0000
0000
0000
0000
0000
0000
0000
ENDCHAR
STARTCHAR LATIN SMALL LETTER A
ENCODING 97
SWIDTH 790 0
DWIDTH 14 0
BBX 14 18 0 0
BITMAP
0000
0000
0000
0000
0FC0
1020
1010
0F88
0FC8
1048
2008
4788
4848
4848
4788
2008
1048
0FB0
ENDCHAR
STARTCHAR LATIN SMALL LETTER B
ENCODING 98
SWIDTH 790 0
DWIDTH 14 0
BBX 14 18 0 0
BITMAP
0000
0000
3000
4800
4800
4B80
4C40
4820
4110
4288
4448
4448
4448
4288
4110
4820
4C40
3380
ENDCHAR
STARTCHAR LATIN SMALL LETTER C
ENCODING 99
SWIDTH 790 0
DWIDTH 14 0
BBX 14 18 0 0
BITMAP
0000
0000
0000
0000
0000
0FC0
1020
2010
4788
4848
4848
4830
4830
4848
4788
2010
1020
0FC0
ENDCHAR
STARTCHAR LATIN SMALL LETTER D
ENCODING 100
SWIDTH 790 0
DWIDTH 14 0
BBX 14 18 0 0
BITMAP
0000
0000
0030
0048
0048
0748
08C8
1048
2208
4508
4888
4888
4888
4508
2208
1048
08C8
0730
ENDCHAR
STARTCHAR LATIN SMALL LETTER E
ENCODING 101
SWIDTH 790 0
DWIDTH 14 0
BBX 14 18 0 0
BITMAP
0000
0000
0000
0000
0000
0FC0
1020
2010
4788
4FC8
4008
4010
4FE0
4870
4788
2010
1020
0FC0
ENDCHAR
STARTCHAR LATIN SMALL LETTER F
ENCODING 102
SWIDTH 790 0
DWIDTH 14 0
BBX 14 18 0 0
BITMAP
0000
0000
01E0
0210
0410
04E0
1CE0
2010
2010
1CE0
0480
0480
0480
0480
0480
0480
0480
0300
ENDCHAR
STARTCHAR LATIN SMALL LETTER G
ENCODING 103
SWIDTH 790 0
DWIDTH 14 0
BBX 14 18 0 0
BITMAP
0000
0000
0000
0000
0FC0
1020
2010
4788
4848
4788
2008
1048
0FC8
1848
2788
2010
1020
0FC0
ENDCHAR
STARTCHAR LATIN SMALL LETTER H
ENCODING 104
SWIDTH 790 0
DWIDTH 14 0
BBX 14 18 0 0
BITMAP
0000
0000
3000
4800
4800
4800
4B80
4C40
4820
4110
4288
4448
4848
4848
4848
4848
4848
3030
ENDCHAR
STARTCHAR LATIN SMALL LETTER I
ENCODING 105
SWIDTH 790 0
DWIDTH 14 0
BBX 14 18 0 0
BITMAP
0000
0000
0000
0300
0480
0480
0300
0F00
1080
1080
0C80
0480
0480
0480
0440
0220
0120
00C0
ENDCHAR
STARTCHAR LATIN SMALL LETTER J
ENCODING 106
SWIDTH 790 0
DWIDTH 14 0
BBX 14 18 0 0
BITMAP
0000
00C0
0120
0120
00C0
03C0
0420
0420
0320
0120
0120
0120
0120
0120
0E20
1040
1080
0F00
ENDCHAR
STARTCHAR LATIN SMALL LETTER K
ENCODING 107
SWIDTH 790 0
DWIDTH 14 0
BBX 14 18 0 0
BITMAP
0000
0000
6000
9000
9000
9060
9090
9110
9220
9440
9880
9100
8080
8440
8A20
9110
9090
6060
ENDCHAR
STARTCHAR LATIN SMALL LETTER L
ENCODING 108
SWIDTH 790 0
DWIDTH 14 0
BBX 14 18 0 0
BITMAP
0000
0000
0300
0480
0480
0480
0480
0480
0480
0480
0480
0480
0480
0480
0480
0480
0480
0300
ENDCHAR
STARTCHAR LATIN SMALL LETTER M
ENCODING 109
SWIDTH 790 0
DWIDTH 14 0
BBX 14 18 0 0
BITMAP
0000
0000
0000
0000
0000
37C0
4820
4010
4488
4CC8
4CC8
4CC8
4CC8
4CC8
4CC8
4CC8
4CC8
3330
ENDCHAR
STARTCHAR LATIN SMALL LETTER N
ENCODING 110
SWIDTH 790 0
DWIDTH 14 0
BBX 14 18 0 0
BITMAP
0000
0000
0000
0000
0000
37C0
4820
4010
4788
4848
4848
4848
4848
4848
4848
4848
4848
3030
ENDCHAR
STARTCHAR LATIN SMALL LETTER O
ENCODING 111
SWIDTH 790 0
DWIDTH 14 0
BBX 14 18 0 0
BITMAP
0000
0000
0000
0000
0000
0FC0
1020
2010
4788
4848
4848
4848
4848
4848
4788
2010
1020
0FC0
ENDCHAR
STARTCHAR LATIN SMALL LETTER P
ENCODING 112
SWIDTH 790 0
DWIDTH 14 0
BBX 14 18 0 0
BITMAP
0000
0000
0000
0000
37C0
4820
4010
4388
4448
4448
4448
4388
4010
4820
4FC0
4800
4800
3000
ENDCHAR
STARTCHAR LATIN SMALL LETTER Q
ENCODING 113
SWIDTH 790 0
DWIDTH 14 0
BBX 14 18 0 0
BITMAP
0000
0000
0000
0000
0FB0
1048
2008
4708
4888
4888
4888
4708
2008
1088
0F48
0048
0048
0030
ENDCHAR
STARTCHAR LATIN SMALL LETTER R
ENCODING 114
SWIDTH 790 0
DWIDTH 14 0
BBX 14 18 0 0
BITMAP
0000
0000
0000
0000
0000
33C0
4C20
4810
4188
4248
4430
4800
4800
4800
4800
4800
4800
3000
ENDCHAR
STARTCHAR LATIN SMALL LETTER S
ENCODING 115
SWIDTH 790 0
DWIDTH 14 0
BBX 14 18 0 0
BITMAP
0000
0000
0000
0000
0000
0FC0
1020
2010
4788
4748
20F0
1820
3610
4988
4788
2010
1020
0FC0
ENDCHAR
STARTCHAR LATIN SMALL LETTER T
ENCODING 116
SWIDTH 790 0
DWIDTH 14 0
BBX 14 18 0 0
BITMAP
0000
0000
0300
0480
0480
0CC0
1020
1020
0CC0
0480
0480
0480
0480
0480
0440
0220
0120
00C0
ENDCHAR
STARTCHAR LATIN SMALL LETTER U
ENCODING 117
SWIDTH 790 0
DWIDTH 14 0
BBX 14 18 0 0
BITMAP
0000
0000
0000
0000
0000
3030
4848
4848
4848
4848
4848
4848
4848
4848
4788
2010
1020
0FC0
ENDCHAR
STARTCHAR LATIN SMALL LETTER V
ENCODING 118
SWIDTH 790 0
DWIDTH 14 0
BBX 14 18 0 0
BITMAP
0000
0000
0000
0000
0000
3030
4848
4848
4848
4848
4848
4848
4488
2310
1020
0840
0480
0300
ENDCHAR
STARTCHAR LATIN SMALL LETTER W
ENCODING 119
SWIDTH 790 0
DWIDTH 14 0
BBX 14 18 0 0
BITMAP
0000
0000
0000
0000
0000
3030
4848
4848
4848
4B48
4CC8
4CC8
4CC8
4CC8
4488
2010
1320
0CC0
ENDCHAR
STARTCHAR LATIN SMALL LETTER X
ENCODING 120
SWIDTH 790 0
DWIDTH 14 0
BBX 14 18 0 0
BITMAP
0000
0000
0000
0000
0000
3030
4848
4488
2310
1020
0840
0480
0840
1020
2310
4488
4848
3030
ENDCHAR
STARTCHAR LATIN SMALL LETTER Y
ENCODING 121
SWIDTH 790 0
DWIDTH 14 0
BBX 14 18 0 0
BITMAP
0000
0000
0000
0000
3030
4848
4848
4888
4888
4908
4608
2048
10C8
0F48
1F88
2010
2020
1FC0
ENDCHAR
STARTCHAR LATIN SMALL LETTER Z
ENCODING 122
SWIDTH 790 0
DWIDTH 14 0
BBX 14 18 0 0
BITMAP
0000
0000
0000
0000
0000
3FF0
4008
4008
3F88
0110
0220
0440
0880
1100
23F0
4008
4008
3FF0
ENDCHAR
STARTCHAR LEFT CURLY BRACKET
ENCODING 123
SWIDTH 790 0
DWIDTH 14 0
BBX 14 18 0 0
BITMAP
0000
00C0
0120
0220
04C0
0480
0480
1880
2300
2300
1880
0480
0480
04C0
0220
0120
00C0
0000
ENDCHAR
STARTCHAR VERTICAL LINE
ENCODING 124
SWIDTH 790 0
DWIDTH 14 0
BBX 14 18 0 0
BITMAP
0300
0480
0480
0480
0480
0480
0480
0480
0480
0480
0480
0480
0480
0480
0480
0480
0480
0300
ENDCHAR
STARTCHAR RIGHT CURLY BRACKET
ENCODING 125
SWIDTH 790 0
DWIDTH 14 0
BBX 14 18 0 0
BITMAP
0000
0C00
1200
1100
0C80
0480
0480
0460
0310
0310
0460
0480
0480
0C80
1100
1200
0C00
0000
ENDCHAR
STARTCHAR TILDE
ENCODING 126
SWIDTH 790 0
DWIDTH 14 0
BBX 14 18 0 0
BITMAP
0000
0000
0000
0000
0000
0C00
1210
2128
4CC8
5210
2120
00C0
0000
0000
0000
0000
0000
0000
ENDCHAR
ENDFONT
